<?xml version="1.0" encoding="UTF-8"?>
<svg id="Camada_2" data-name="Camada 2" xmlns="http://www.w3.org/2000/svg" viewBox="0 0 836.02 836.02">
  <defs>
    <style>
      .cls-1 {
        fill: #b0b6b7;
      }

      .cls-1, .cls-2 {
        stroke-width: 0px;
      }

      .cls-2 {
        fill: #e7e7e7;
      }
    </style>
  </defs>
  <g id="Objects">
    <g>
      <path class="cls-2" d="M836.02,418.01c0,112.19-44.2,214.06-116.14,289.14-76.09,79.42-183.21,128.87-301.87,128.87s-225.79-49.45-301.87-128.87C44.2,632.07,0,530.2,0,418.01,0,187.15,187.15,0,418.01,0s418.01,187.15,418.01,418.01Z"/>
      <circle class="cls-1" cx="418.01" cy="269.67" r="170.77"/>
      <path class="cls-1" d="M705.72,672.59c-3.35,3.78-6.77,7.51-10.27,11.16-69.93,72.99-168.38,118.44-277.44,118.44s-207.51-45.44-277.44-118.44c-3.5-3.65-6.92-7.37-10.27-11.16,51.46-107.09,160.96-181.01,287.71-181.01s236.25,73.92,287.71,181.01Z"/>
    </g>
  </g>
</svg>